ffmpeg started on 2016-11-27 at 16:22:41
Report written to "Output/NVENCh264/results/ffmpeg/sintelllhq15000k.log"
Command line:
Tools/ffmpeg/ffmpeg -benchmark -y -i Input/y4m/sintel.y4m -c:v h264_nvenc -preset llhq -b:v 15000k -an Output/NVENCh264/encoded/sintelllhq15000k.mkv
ffmpeg version N-82227-gdb23fde Copyright (c) 2000-2016 the FFmpeg developers
  built with gcc 5.4.0 (Ubuntu 5.4.0-6ubuntu1~16.04.2) 20160609
  configuration: --prefix=/home/jaroslav/ffmpeg_build --pkg-config-flags=--static --extra-cflags=-I/home/jaroslav/ffmpeg_build/include --extra-ldflags=-L/home/jaroslav/ffmpeg_build/lib --bindir=/home/jaroslav/bin --enable-gpl --enable-libass --enable-libfdk-aac --enable-libfreetype --enable-libmp3lame --enable-libopus --enable-libtheora --enable-libvorbis --enable-libvpx --enable-libx264 --enable-libx265 --enable-nvenc --enable-libmfx --enable-libxvid --enable-libgsm --enable-libopencore-amrnb --enable-version3 --enable-nonfree
  libavutil      55. 35.100 / 55. 35.100
  libavcodec     57. 66.101 / 57. 66.101
  libavformat    57. 57.100 / 57. 57.100
  libavdevice    57.  2.100 / 57.  2.100
  libavfilter     6. 66.100 /  6. 66.100
  libswscale      4.  3.100 /  4.  3.100
  libswresample   2.  4.100 /  2.  4.100
  libpostproc    54.  2.100 / 54.  2.100
Input #0, yuv4mpegpipe, from 'Input/y4m/sintel.y4m':
  Duration: 00:00:20.83, start: 0.000000, bitrate: 2057307 kb/s
    Stream #0:0: Video: rawvideo (I420 / 0x30323449), yuv420p(progressive), 4096x1744, SAR 1:1 DAR 256:109, 24 fps, 24 tbr, 24 tbn, 24 tbc
[h264_nvenc @ 0x31d91c0] The variable bitrate rate-control requires the 'qmin' and/or 'qmax' option set.
Output #0, matroska, to 'Output/NVENCh264/encoded/sintelllhq15000k.mkv':
  Metadata:
    encoder         : Lavf57.57.100
    Stream #0:0: Video: h264 (h264_nvenc) (Main) (H264 / 0x34363248), yuv420p, 4096x1744 [SAR 1:1 DAR 256:109], q=-1--1, 15000 kb/s, 24 fps, 1k tbn, 24 tbc
    Metadata:
      encoder         : Lavc57.66.101 h264_nvenc
    Side data:
      cpb: bitrate max/min/avg: 0/0/15000000 buffer size: 30000000 vbv_delay: -1
Stream mapping:
  Stream #0:0 -> #0:0 (rawvideo (native) -> h264 (h264_nvenc))
Press [q] to stop, [?] for help
frame=   17 fps=0.0 q=0.0 size=       0kB time=00:00:00.00 bitrate=N/A speed=   0x    frame=   38 fps= 37 q=31.0 size=       1kB time=00:00:00.29 bitrate=  20.4kbits/s speed=0.288x    frame=   59 fps= 39 q=30.0 size=       1kB time=00:00:01.16 bitrate=   5.1kbits/s speed=0.764x    frame=   80 fps= 39 q=28.0 size=       1kB time=00:00:02.04 bitrate=   2.9kbits/s speed=   1x    frame=  100 fps= 39 q=29.0 size=    5125kB time=00:00:02.87 bitrate=14597.2kbits/s speed=1.13x    frame=  121 fps= 40 q=24.0 size=    5125kB time=00:00:03.75 bitrate=11192.1kbits/s speed=1.23x    frame=  142 fps= 40 q=24.0 size=    5125kB time=00:00:04.62 bitrate=9075.1kbits/s speed= 1.3x    frame=  162 fps= 36 q=27.0 size=    8766kB time=00:00:05.45 bitrate=13154.0kbits/s speed=1.22x    frame=  163 fps= 21 q=28.0 size=    8766kB time=00:00:05.50 bitrate=13053.5kbits/s speed= 0.7x    frame=  164 fps= 15 q=28.0 size=    8766kB time=00:00:05.54 bitrate=12954.6kbits/s speed=0.498x    frame=  165 fps= 14 q=28.0 size=    8766kB time=00:00:05.58 bitrate=12859.5kbits/s speed=0.471x    frame=  186 fps= 15 q=26.0 size=    8766kB time=00:00:06.45 bitrate=11117.4kbits/s speed=0.522x    frame=  207 fps= 16 q=25.0 size=    8766kB time=00:00:07.33 bitrate=9791.0kbits/s speed=0.569x    frame=  227 fps= 17 q=24.0 size=   13888kB time=00:00:08.16 bitrate=13928.6kbits/s speed=0.61x    frame=  248 fps= 18 q=27.0 size=   13888kB time=00:00:09.04 bitrate=12580.9kbits/s speed=0.65x    frame=  269 fps= 19 q=26.0 size=   13888kB time=00:00:09.91 bitrate=11471.0kbits/s speed=0.688x    frame=  289 fps= 19 q=24.0 size=   19013kB time=00:00:10.75 bitrate=14487.4kbits/s speed=0.72x    frame=  310 fps= 20 q=24.0 size=   20219kB time=00:00:11.62 bitrate=14246.6kbits/s speed=0.753x    frame=  331 fps= 21 q=22.0 size=   20219kB time=00:00:12.50 bitrate=13249.4kbits/s speed=0.783x    frame=  352 fps= 21 q=23.0 size=   20219kB time=00:00:13.37 bitrate=12382.7kbits/s speed=0.812x    frame=  372 fps= 22 q=21.0 size=   25343kB time=00:00:14.20 bitrate=14611.1kbits/s speed=0.836x    frame=  393 fps= 22 q=24.0 size=   25343kB time=00:00:15.08 bitrate=13763.5kbits/s speed=0.862x    frame=  414 fps= 23 q=21.0 size=   25343kB time=00:00:15.95 bitrate=13008.9kbits/s speed=0.886x    frame=  434 fps= 23 q=26.0 size=   30486kB time=00:00:16.79 bitrate=14871.8kbits/s speed=0.907x    frame=  455 fps= 24 q=24.0 size=   32148kB time=00:00:17.66 bitrate=14906.0kbits/s speed=0.929x    frame=  475 fps= 24 q=24.0 size=   32148kB time=00:00:18.50 bitrate=14234.9kbits/s speed=0.937x    frame=  496 fps= 24 q=24.0 size=   32148kB time=00:00:19.37 bitrate=13592.0kbits/s speed=0.956x    frame=  500 fps= 24 q=26.0 Lsize=   38374kB time=00:00:20.79 bitrate=15118.5kbits/s speed=1.01x    
video:38369kB audio:0kB subtitle:0kB other streams:0kB global headers:0kB muxing overhead: 0.012851%
bench: utime=1.020s
bench: maxrss=1194764kB
